<?xml version="1.0" encoding="UTF-8"?>
<svg width="210px" height="48px" viewBox="0 0 210 48" version="1.1" xmlns="http://www.w3.org/2000/svg" xmlns:xlink="http://www.w3.org/1999/xlink">
    <title>FF6BEA4B-7516-44BA-8B8F-333D5CCC255C</title>
    <g id="1.0_Homepage" stroke="none" stroke-width="1" fill="none" fill-rule="evenodd">
        <g id="1.0_sgtech_home_desktop_redesigned" transform="translate(-390.000000, -16.000000)">
            <g id="Logo_Horizontal_Dark" transform="translate(390.000000, 16.000000)">
                <g id="Group" transform="translate(50.750000, 12.521739)">
                    <path d="M2.32178218,20.7742803 L4.05445545,17.6203606 L4.60891089,17.6203606 L2.52970297,21.2248403 L2.52970297,23.3043478 L2.06188119,23.3043478 L2.06188119,21.2075111 L0,17.6203606 L0.537128713,17.6203606 L2.32178218,20.7742803 Z M11.1768862,20.9239719 C11.1906458,21.547721 10.975231,22.1553051 10.5704506,22.6344423 C10.1466069,23.0628273 9.56565514,23.3043478 8.95906442,23.3043478 C8.35247369,23.3043478 7.77152195,23.0628273 7.34767828,22.6344423 C6.9491292,22.1528856 6.73995371,21.5455471 6.75856937,20.9239719 L6.75856937,20.0003178 C6.74150702,19.3789738 6.95050341,18.7721554 7.34767828,18.2898473 C7.75128554,17.8434079 8.33608125,17.5986821 8.94173768,17.6227639 C9.55843315,17.593178 10.1561039,17.8379703 10.5704506,18.2898473 C10.9724975,18.7705107 11.1875449,19.3770585 11.1768862,20.0003178 L11.1768862,20.9239719 Z M10.7090644,20.0003178 C10.7358246,19.4705968 10.5699032,18.9488785 10.2412426,18.5293132 C9.91975013,18.1547665 9.43810526,17.951898 8.94173768,17.9819627 C8.45579062,17.9546579 7.98583923,18.1580242 7.6768862,18.5293132 C7.36225499,18.9551109 7.20341822,19.4737617 7.22639115,20.0003178 L7.22639115,20.9239719 C7.20341822,21.450528 7.36225499,21.9691788 7.6768862,22.3949765 C7.98946649,22.7731483 8.46519451,22.9825788 8.95906442,22.9594317 C9.45400001,22.9882587 9.93223064,22.7777266 10.2412426,22.3949765 C10.5727003,21.9768581 10.7389576,21.4540838 10.7090644,20.9239719 L10.7090644,20.0003178 Z M17.9535079,17.6203606 L17.9535079,21.3401945 C17.9759034,21.8842295 17.761602,22.4118425 17.364399,22.7905884 C16.9587432,23.1416536 16.431175,23.3250249 15.8916267,23.3024921 C15.3541449,23.3250985 14.8298946,23.134565 14.4361811,22.7735249 C14.0423006,22.40083 13.8334371,21.8772557 13.864399,21.3401945 L13.864399,17.6203606 L14.3322207,17.6203606 L14.3322207,21.3401945 C14.3125261,21.7666988 14.4760433,22.1816674 14.7827158,22.4834462 C15.0736959,22.7748263 15.4771393,22.9300268 15.8916267,22.9100326 C16.3217139,22.9351623 16.7421652,22.7778558 17.0468175,22.4778325 C17.3514699,22.1778092 17.5112035,21.7637466 17.4856861,21.3401945 L17.4856861,17.6203606 L17.9535079,17.6203606 Z M21.4851485,20.7413328 L21.4851485,23.3043478 L20.9653465,23.3043478 L20.9653465,17.6241523 L22.8539604,17.6241523 C23.3533376,17.5949278 23.847934,17.7352953 24.2574257,18.0224587 C24.5983786,18.3147729 24.7787325,18.7525462 24.7425743,19.2000602 C24.7463691,19.4870031 24.6549776,19.7671236 24.4826733,19.996673 C24.2992395,20.2442998 24.0457596,20.4312942 23.7549505,20.5335207 C24.0575728,20.5913717 24.3286622,20.757635 24.5173267,21.0010978 C24.6783965,21.2602727 24.7569429,21.5622163 24.7425743,21.8669813 L24.7425743,22.3865114 C24.7136871,22.5468536 24.7136871,22.7110639 24.7425743,22.8714061 C24.7727089,23.0062421 24.8456408,23.1277317 24.950495,23.2177595 L24.4653465,23.2177595 C24.4358627,23.1225734 24.4241168,23.0227853 24.4306931,22.9233591 C24.4127438,22.7448595 24.4127438,22.565011 24.4306931,22.3865114 L24.4306931,21.8669813 C24.4403177,21.5529541 24.3140301,21.2500224 24.0841584,21.0357331 C23.8178579,20.8283148 23.4856727,20.7237927 23.1485149,20.7413328 L21.4851485,20.7413328 Z M21.4851485,20.3430264 L22.8539604,20.3430264 C23.2541622,20.3726081 23.6522293,20.2624318 23.980198,20.0313083 C24.2210272,19.8174033 24.3490197,19.5039857 24.3267327,19.1827425 C24.3492111,18.8564255 24.2216395,18.5376633 23.980198,18.3168591 C23.6642942,18.103221 23.2866865,17.9997376 22.9059406,18.0224587 L21.4851485,18.0224587 L21.4851485,20.3430264 Z M34.5545631,21.8868587 C34.5520832,21.6174587 34.4247523,21.3635356 34.2080284,21.1958 C33.8525257,20.9511648 33.4528096,20.7739015 33.0298106,20.6732923 C32.5346105,20.5520897 32.0653408,20.3466665 31.643672,20.066509 C31.3343258,19.8260377 31.1607099,19.4569818 31.1758502,19.0720587 C31.1657368,18.6586402 31.3669214,18.2672238 31.7129789,18.0270431 C32.101727,17.7440283 32.5794067,17.6010508 33.0644641,17.622521 C33.5688726,17.5994443 34.0637293,17.7619122 34.4506027,18.0776084 C34.8031937,18.3707614 34.9953476,18.8069158 34.9704047,19.2574647 L34.5199096,19.2574647 C34.5305538,18.9119314 34.3848866,18.5792398 34.1213948,18.3472898 C33.8269888,18.104871 33.4498816,17.978581 33.0644641,17.9933329 C32.6917631,17.9701009 32.322868,18.077757 32.0248601,18.2967246 C31.7799538,18.4753286 31.6381442,18.7574979 31.643672,19.0552036 C31.6461519,19.3246037 31.7734828,19.5785267 31.9902066,19.7462623 C32.3496243,19.991458 32.7562817,20.1634528 33.1857512,20.251915 C33.6848065,20.3709211 34.1554943,20.5826884 34.5718898,20.8755533 C34.8768731,21.1193151 35.0494402,21.4861415 35.0397116,21.8700036 C35.0428433,22.2858544 34.8355233,22.6766029 34.4852562,22.9150192 C34.0713717,23.185415 33.5799908,23.3211449 33.0817908,23.3026863 C32.5629461,23.3161896 32.0531633,23.1685984 31.6263453,22.881309 C31.2099396,22.6162466 30.9769616,22.1500236 31.0199096,21.6677426 L31.4530779,21.6677426 C31.435832,22.0515383 31.6264917,22.4160824 31.9555532,22.6284827 C32.2934292,22.832273 32.684282,22.9375629 33.0817908,22.9318743 C33.4625367,22.9539885 33.8401444,22.8532693 34.1560482,22.6453378 C34.4122236,22.474363 34.5621658,22.1889835 34.5545631,21.8868587 Z M41.864399,17.6203606 L41.864399,21.3402278 C41.8935443,21.8820328 41.6853557,22.4101328 41.2926168,22.7906348 C40.8789666,23.1397549 40.3469139,23.3225361 39.8025178,23.3025431 C39.265036,23.3251497 38.7407857,23.1346144 38.3470722,22.7735712 C37.9531917,22.4008729 37.7443282,21.8772939 37.7752901,21.3402278 L37.7752901,17.6203606 L38.3124188,17.6203606 L38.3124188,21.3402278 C38.2859806,21.764518 38.4433879,22.1799633 38.7455871,22.4834898 C39.0365672,22.7748725 39.4400106,22.9300744 39.854498,22.9100801 C40.2845851,22.93521 40.7050364,22.777902 41.0096888,22.4778761 C41.3143412,22.1778501 41.4740748,21.7637837 41.4485574,21.3402278 L41.4485574,17.6203606 L41.864399,17.6203606 Z M48.6725614,21.5002297 L48.6725614,21.5002297 C48.6952625,21.9923392 48.4993087,22.4699164 48.1354327,22.8093158 C47.7183938,23.149573 47.1872055,23.3253284 46.6453337,23.3023482 C46.0562922,23.323953 45.4913068,23.0719676 45.1205812,22.6223035 C44.7177902,22.1459818 44.5080534,21.5407014 44.5314723,20.9221917 L44.5314723,20.0041313 C44.5080534,19.3856215 44.7177902,18.7803411 45.1205812,18.3040195 C45.4913068,17.8543553 46.0562922,17.60237 46.6453337,17.6239748 C47.1853989,17.5929163 47.717527,17.7629114 48.1354327,18.1000061 C48.5191451,18.4331152 48.71855,18.9254149 48.6725614,19.4260933 L48.2393931,19.4260933 C48.2610914,19.029152 48.1024728,18.6431704 47.8062248,18.372024 C47.4843087,18.1026463 47.0673342,17.9683023 46.6453337,17.9979994 C46.1787341,17.9885837 45.7352,18.1967223 45.4497891,18.5590363 C45.1399966,18.9846041 44.9816756,19.4984401 44.9992941,20.0211324 L44.9992941,20.9391928 C44.9790416,21.4622205 45.1376144,21.9768738 45.4497891,22.401289 C45.7352,22.7636029 46.1787341,22.9717415 46.6453337,22.9623259 C47.0635572,22.98491 47.4759611,22.8580782 47.8062248,22.6053024 C48.1072983,22.3302791 48.2663575,21.9369827 48.2393931,21.5342319 L48.6725614,21.5002297 Z M55.4299871,21.5002297 L55.4299871,21.5002297 C55.4526882,21.9923392 55.2567344,22.4699164 54.8928584,22.8093158 C54.4758195,23.149573 53.9446313,23.3253284 53.4027594,23.3023482 C52.8137179,23.323953 52.2487325,23.0719676 51.8780069,22.6223035 C51.475216,22.1459818 51.2654791,21.5407014 51.288898,20.9221917 L51.288898,20.0041313 C51.2654791,19.3856215 51.475216,18.7803411 51.8780069,18.3040195 C52.2487325,17.8543553 52.8137179,17.60237 53.4027594,17.6239748 C53.9428246,17.5929163 54.4749527,17.7629114 54.8928584,18.1000061 C55.2765709,18.4331152 55.4759758,18.9254149 55.4299871,19.4260933 L54.9968188,19.4260933 C55.0185172,19.029152 54.8598986,18.6431704 54.5636505,18.372024 C54.2417345,18.1026463 53.82476,17.9683023 53.4027594,17.9979994 C52.9361598,17.9885837 52.4926257,18.1967223 52.2072149,18.5590363 C51.8974224,18.9846041 51.7391014,19.4984401 51.7567198,20.0211324 L51.7567198,20.9391928 C51.7364673,21.4622205 51.8950402,21.9768738 52.2072149,22.401289 C52.4926257,22.7636029 52.9361598,22.9717415 53.4027594,22.9623259 C53.820983,22.98491 54.2333868,22.8580782 54.5636505,22.6053024 C54.8647241,22.3302791 55.0237832,21.9369827 54.9968188,21.5342319 L55.4299871,21.5002297 Z M61.2846535,20.5490003 L58.720297,20.5490003 L58.720297,22.9231048 L61.6831683,22.9231048 L61.6831683,23.3043478 L58.2178218,23.3043478 L58.2178218,17.6203606 L61.6831683,17.6203606 L61.6831683,18.0189328 L58.7376238,18.0189328 L58.7376238,20.1504281 L61.3019802,20.1504281 L61.2846535,20.5490003 Z M67.4738521,21.88727 C67.4713723,21.6178744 67.3440414,21.3639555 67.1273175,21.1962227 C66.7794232,20.9495185 66.3849354,20.7719656 65.9664264,20.6737236 C65.4699812,20.5560268 65.0000865,20.3503335 64.5802878,20.0669504 C64.2666654,19.8282437 64.0869165,19.4598031 64.0951393,19.0725165 C64.0937648,18.661051 64.2930543,18.2733279 64.632268,18.0275182 C65.0223113,17.7469944 65.4990614,17.6042975 65.9837531,17.6230027 C66.493803,17.5973029 66.9950302,17.7598281 67.3872185,18.0780826 C67.7275435,18.3798624 67.9170785,18.8100654 67.9070205,19.2579194 L67.4565254,19.2579194 C67.4604514,18.910167 67.3086675,18.5779548 67.0406838,18.3477596 C66.748024,18.1023728 66.3696752,17.9756692 65.9837531,17.9938086 C65.6115793,17.9749502 65.2441917,18.0821646 64.9441492,18.2971952 C64.7056234,18.4808623 64.565462,18.7597475 64.5629611,19.0556617 C64.5654409,19.3250573 64.6927718,19.5789761 64.9094957,19.7467089 C65.2767607,19.9892705 65.6885148,20.1609302 66.122367,20.2523533 C66.616242,20.3709595 67.0813307,20.582853 67.4911789,20.8759813 C67.8024479,21.1347476 67.9743317,21.5182204 67.9574267,21.9161803 C67.9405216,22.3141401 67.7367,22.6825108 67.4045452,22.9154135 C66.9960093,23.1834354 66.5108949,23.3191071 66.0184066,23.3030741 C65.4941587,23.3166731 64.9788346,23.1692353 64.5456343,22.8817038 C64.1349963,22.6117427 63.9037772,22.1490471 63.9391987,21.6681574 L64.3896937,21.6681574 C64.3651527,22.0493668 64.5496789,22.4147781 64.8748422,22.6288817 C65.2188689,22.8331685 65.6153956,22.9383667 66.0184066,22.9322683 C66.393323,22.9506558 66.7642376,22.8501016 67.0753373,22.6457365 C67.3315127,22.4747646 67.4814548,22.1893897 67.4738521,21.88727 L67.4738521,21.88727 Z M73.903573,21.8868587 C73.9010931,21.6174587 73.7737622,21.3635356 73.5570383,21.1958 C73.1963186,20.9492374 72.7905475,20.7718968 72.3614938,20.6732923 C71.8662937,20.5520897 71.397024,20.3466665 70.9753552,20.066509 C70.666009,19.8260377 70.492393,19.4569818 70.5075334,19.0720587 C70.49742,18.6586402 70.6986046,18.2672238 71.0446621,18.0270431 C71.4334102,17.7440283 71.9110899,17.6010508 72.3961472,17.622521 C72.9005558,17.5994443 73.3954125,17.7619122 73.7822859,18.0776084 C74.1348769,18.3707614 74.3270308,18.8069158 74.3020878,19.2574647 L73.8515928,19.2574647 C73.8534082,18.9136058 73.7092114,18.5842723 73.4530779,18.3472898 C73.158672,18.104871 72.7815648,17.978581 72.3961472,17.9933329 C72.0234463,17.9701009 71.6545512,18.077757 71.3565433,18.2967246 C71.1116369,18.4753286 70.9698274,18.7574979 70.9753552,19.0552036 C70.977835,19.3246037 71.1051659,19.5785267 71.3218898,19.7462623 C71.6813075,19.991458 72.0879649,20.1634528 72.5174344,20.251915 C73.0164897,20.3709211 73.4871774,20.5826884 73.903573,20.8755533 C74.2085563,21.1193151 74.3811233,21.4861415 74.3713948,21.8700036 C74.3745265,22.2858544 74.1672065,22.6766029 73.8169393,22.9150192 C73.4030548,23.185415 72.911674,23.3211449 72.413474,23.3026863 C71.8946293,23.3161896 71.3848464,23.1685984 70.9580284,22.881309 C70.5416227,22.6162466 70.3086448,22.1500236 70.3515928,21.6677426 L70.7847611,21.6677426 C70.7675152,22.0515383 70.9581748,22.4160824 71.2872363,22.6284827 C71.6251124,22.832273 72.0159651,22.9375629 72.413474,22.9318743 C72.7942199,22.9539885 73.1718276,22.8532693 73.4877314,22.6453378 C73.7505002,22.4782702 73.9073362,22.1922073 73.903573,21.8868587 L73.903573,21.8868587 Z M81.4962871,23.3043478 L81.0284653,23.3043478 L81.0284653,17.6203606 L81.4962871,17.6203606 L81.4962871,23.3043478 Z M87.9382264,21.8868587 C87.9357466,21.6174587 87.8084157,21.3635356 87.5916918,21.1958 C87.2309721,20.9492374 86.825201,20.7718968 86.3961472,20.6732923 C85.9009471,20.5520897 85.4316775,20.3466665 85.0100086,20.066509 C84.7006624,19.8260377 84.5270465,19.4569818 84.5421868,19.0720587 C84.5320735,18.6586402 84.733258,18.2672238 85.0793156,18.0270431 C85.4680637,17.7440283 85.9457433,17.6010508 86.4308007,17.622521 C86.9352093,17.5994443 87.430066,17.7619122 87.8169393,18.0776084 C88.1695304,18.3707614 88.3616842,18.8069158 88.3367413,19.2574647 L87.8862462,19.2574647 C87.8968904,18.9119314 87.7512233,18.5792398 87.4877314,18.3472898 C87.1933255,18.104871 86.8162182,17.978581 86.4308007,17.9933329 C86.0580998,17.9701009 85.6892046,18.077757 85.3911967,18.2967246 C85.1462904,18.4753286 85.0044809,18.7574979 85.0100086,19.0552036 C85.0124885,19.3246037 85.1398194,19.5785267 85.3565433,19.7462623 C85.7159609,19.991458 86.1226183,20.1634528 86.5520878,20.251915 C87.0511432,20.3709211 87.5218309,20.5826884 87.9382264,20.8755533 C88.2432097,21.1193151 88.4157768,21.4861415 88.4060482,21.8700036 C88.4091799,22.2858544 88.20186,22.6766029 87.8515928,22.9150192 C87.4377083,23.185415 86.9463274,23.3211449 86.4481274,23.3026863 C85.9292828,23.3161896 85.4194999,23.1685984 84.9926819,22.881309 C84.5762762,22.6162466 84.3432983,22.1500236 84.3862462,21.6677426 L84.8194146,21.6677426 C84.8021687,22.0515383 84.9928283,22.4160824 85.3218898,22.6284827 C85.6597659,22.832273 86.0506186,22.9375629 86.4481274,22.9318743 C86.8288733,22.9539885 87.206481,22.8532693 87.5223849,22.6453378 C87.7851537,22.4782702 87.9419897,22.1922073 87.9382264,21.8868587 L87.9382264,21.8868587 Z M99.0234209,20.9242733 C99.0371805,21.5481467 98.8217657,22.1558519 98.4169852,22.6350846 C98.0012053,23.0850407 97.4045383,23.3294705 96.7882723,23.3023011 C96.1826159,23.3263876 95.5978202,23.081613 95.1942129,22.6350846 C94.7956639,22.1534319 94.5864884,21.5459724 94.605104,20.9242733 L94.605104,20.0004351 C94.5880417,19.3789673 94.7970381,18.7720279 95.1942129,18.2896238 C95.5978202,17.8430954 96.1826159,17.5983207 96.7882723,17.6224073 C97.4045383,17.5952378 98.0012053,17.8396677 98.4169852,18.2896238 C98.8190321,18.7703829 99.0340795,19.3770516 99.0234209,20.0004351 L99.0234209,20.9242733 Z M98.5555991,20.0004351 C98.5823593,19.4706086 98.4164378,18.9487863 98.0877773,18.5291373 C97.7662848,18.154516 97.2846399,17.9516071 96.7882723,17.9816777 C96.3018104,17.95152 95.8306019,18.1554709 95.5234209,18.5291373 C95.2087896,18.9550199 95.0499529,19.473774 95.0729258,20.0004351 L95.0729258,20.9242733 C95.0499529,21.4509343 95.2087896,21.9696885 95.5234209,22.395571 C95.8305753,22.7710765 96.2998586,22.9805415 96.7882723,22.9601388 C97.2870896,22.983317 97.7680816,22.7743508 98.0877773,22.395571 C98.419235,21.9773694 98.5854922,21.4544909 98.5555991,20.9242733 L98.5555991,20.0004351 Z M105.782716,17.6203606 L105.782716,21.3395801 C105.811861,21.8812908 105.603673,22.4092988 105.210934,22.7897345 C104.805278,23.1407418 104.27771,23.3240827 103.738161,23.3015537 C103.199749,23.3301113 102.673208,23.1387767 102.282716,22.7726739 C101.888835,22.4000405 101.679972,21.8765527 101.710934,21.3395801 L101.710934,17.6203606 L102.178755,17.6203606 L102.178755,21.3395801 C102.152317,21.7637964 102.309724,22.1791694 102.611924,22.482643 C102.91065,22.7730149 103.318812,22.9275895 103.738161,22.909159 C104.1621,22.9242497 104.57433,22.7705 104.881726,22.482643 C105.183925,22.1791694 105.341332,21.7637964 105.314894,21.3395801 L105.314894,17.6203606 L105.782716,17.6203606 Z M109.279703,20.7413328 L109.279703,23.3043478 L108.811881,23.3043478 L108.811881,17.6241523 L110.717822,17.6241523 C111.217199,17.5949278 111.711795,17.7352953 112.121287,18.0224587 C112.46224,18.3147729 112.642594,18.7525462 112.606436,19.2000602 C112.61023,19.4870031 112.518839,19.7671236 112.346535,19.996673 C112.160105,20.2487272 111.899662,20.4363901 111.601485,20.5335207 C111.905931,20.58661 112.178618,20.7538532 112.363861,21.0010978 C112.531017,21.2583189 112.615645,21.5604036 112.606436,21.8669813 L112.606436,22.3865114 C112.5865,22.5475289 112.5865,22.7103886 112.606436,22.8714061 C112.650653,23.000163 112.721496,23.1181733 112.814356,23.2177595 L112.814356,23.2177595 L112.346535,23.2177595 C112.238187,23.1163006 112.165302,22.9827478 112.138614,22.8367708 C112.120665,22.6582711 112.120665,22.4784226 112.138614,22.299923 L112.138614,21.7803929 C112.148238,21.4663657 112.021951,21.163434 111.792079,20.9491448 C111.525779,20.7417264 111.193594,20.6372043 110.856436,20.6547444 L109.279703,20.7413328 Z M109.279703,20.3430264 L110.665842,20.3430264 C111.066043,20.3726081 111.46411,20.2624318 111.792079,20.0313083 C112.026625,19.8130133 112.153339,19.5027275 112.138614,19.1827425 C112.153785,18.8576146 112.027409,18.5418388 111.792079,18.3168591 C111.476175,18.103221 111.098568,17.9997376 110.717822,18.0224587 L109.279703,18.0224587 L109.279703,20.3430264 Z M121.893564,22.5681688 L121.893564,22.5681688 L124.024752,17.6203606 L124.596535,17.6203606 L124.596535,23.2358661 L124.128713,23.2358661 L124.128713,18.5791054 L124.128713,18.5791054 L122.084158,23.3043478 L121.772277,23.3043478 L119.675743,18.4592623 L119.675743,18.4592623 L119.675743,23.3043478 L119.207921,23.3043478 L119.207921,17.6203606 L119.831683,17.6203606 L121.893564,22.5681688 Z M128.278465,23.3043478 L127.810644,23.3043478 L127.810644,17.6203606 L128.278465,17.6203606 L128.278465,23.3043478 Z M134.718902,21.8875784 C134.716422,21.6181633 134.589091,21.3642261 134.372367,21.1964812 C134.019293,20.9477479 133.618724,20.7700966 133.194149,20.6739443 C132.697704,20.556239 132.227809,20.3505308 131.808011,20.0671272 C131.494388,19.8284033 131.314639,19.459936 131.322862,19.0726215 C131.321488,18.6611262 131.520777,18.2733751 131.859991,18.0275476 C132.251276,17.7494056 132.727145,17.6069623 133.211476,17.6230029 C133.721526,17.5973012 134.222753,17.7598381 134.614941,18.0781157 C134.955266,18.3799173 135.144801,18.8101514 135.134743,19.2580378 L134.684248,19.2580378 C134.688174,18.9102602 134.53639,18.5780241 134.268407,18.3478122 C133.975747,18.1024077 133.597398,17.9756949 133.211476,17.9938356 C132.839302,17.9749758 132.471914,18.082198 132.171872,18.2972441 C131.933346,18.4809245 131.793185,18.7598298 131.790684,19.0557654 C131.793164,19.3251805 131.920495,19.5791177 132.137218,19.7468626 C132.504483,19.9894417 132.916238,20.1611139 133.35009,20.2525435 C133.843965,20.3711583 134.309053,20.5830671 134.718902,20.8762166 C135.023885,21.119992 135.196452,21.4868389 135.186723,21.8707224 C135.196837,22.284164 134.995652,22.6756022 134.649595,22.9157962 C134.233283,23.181073 133.743621,23.3163354 133.246129,23.3034849 C132.721882,23.3170849 132.206557,23.1696364 131.773357,22.8820842 C131.362719,22.6121036 131.1315,22.1493745 131.166921,21.66845 L131.617417,21.66845 C131.592875,22.0496869 131.777402,22.4151247 132.102565,22.6292437 C132.447697,22.831041 132.843473,22.9360479 133.246129,22.9326522 C133.621046,22.9510411 133.99196,22.8504796 134.30306,22.6460997 C134.565829,22.4790228 134.722665,22.192944 134.718902,21.8875784 Z M141.131296,21.9307851 C141.128816,21.6599998 141.001485,21.404771 140.784761,21.236173 C140.424041,20.9883425 140.01827,20.81009 139.589217,20.7109784 C139.094016,20.5891526 138.624747,20.3826732 138.203078,20.1010751 C137.893732,19.8593673 137.720116,19.4884137 137.735256,19.1015113 C137.725143,18.685967 137.926327,18.2925379 138.272385,18.0511223 C139.096769,17.4767733 140.202951,17.4767733 141.027335,18.0511223 C141.369213,18.3520758 141.553856,18.7878633 141.529811,19.2370454 L141.079316,19.2370454 C141.08996,18.8897354 140.944293,18.5553331 140.680801,18.3221904 C140.386395,18.078525 140.009288,17.9515857 139.62387,17.9664135 C139.251169,17.943062 138.882274,18.0512716 138.584266,18.2713651 C138.33936,18.4508876 138.19755,18.7345077 138.203078,19.0337443 C138.205558,19.3045296 138.332889,19.5597583 138.549613,19.7283564 C138.90903,19.9748129 139.315688,20.1476921 139.745157,20.2366092 C140.244212,20.3562272 140.7149,20.5690834 141.131296,20.8634543 C141.436279,21.1084694 141.608846,21.4771821 141.599118,21.863018 C141.602249,22.2810071 141.394929,22.6737648 141.044662,22.9134071 C140.636126,23.1828117 140.151012,23.3191833 139.658523,23.3030675 C139.133965,23.3190841 138.617913,23.1706763 138.185751,22.8795236 C137.769346,22.6130982 137.536368,22.1444779 137.579316,21.6597169 L138.012484,21.6597169 C137.995238,22.0454862 138.185898,22.4119047 138.514959,22.6253972 C138.858211,22.8324882 139.255271,22.9383712 139.658523,22.9303488 C140.03344,22.9488312 140.404355,22.8477583 140.715454,22.6423389 C140.96314,22.4844439 141.11792,22.2195969 141.131296,21.9307851 L141.131296,21.9307851 Z M144.912129,23.3043478 L144.444307,23.3043478 L144.444307,17.6203606 L144.912129,17.6203606 L144.912129,23.3043478 Z M152.215967,20.924423 C152.234583,21.5461679 152.025407,22.1536722 151.626858,22.6353604 C151.209677,23.0833752 150.613986,23.3274234 149.998145,23.302626 C149.392489,23.3267143 148.807693,23.0819217 148.404086,22.6353604 C147.999306,22.1560923 147.783891,21.5483424 147.79765,20.924423 L147.79765,20.0005168 C147.786992,19.3770874 148.002039,18.770374 148.404086,18.2895794 C148.806216,17.840986 149.392037,17.5957642 149.998145,17.6223138 C150.613986,17.5975164 151.209677,17.8415647 151.626858,18.2895794 C152.024033,18.7720192 152.23303,19.3790033 152.215967,20.0005168 L152.215967,20.924423 Z M151.765472,20.0005168 C151.792232,19.4706512 151.626311,18.9487905 151.29765,18.5291107 C150.976158,18.1544617 150.494513,17.9515378 149.998145,17.9816107 C149.511683,17.9514508 149.040475,18.1554167 148.733294,18.5291107 C148.410809,18.9511248 148.2511,19.4727673 148.282799,20.0005168 L148.282799,20.924423 C148.2511,21.4521725 148.410809,21.973815 148.733294,22.3958292 C149.038681,22.7736138 149.509188,22.9836404 149.998145,22.9604385 C150.496963,22.9836185 150.977955,22.7746369 151.29765,22.3958292 C151.629108,21.9775967 151.795365,21.4546797 151.765472,20.924423 L151.765472,20.0005168 Z M159.25,23.3043478 L158.782178,23.3043478 L155.542079,18.4348343 L155.542079,18.4348343 L155.542079,23.3043478 L155.074257,23.3043478 L155.074257,17.6203606 L155.542079,17.6203606 L158.782178,22.4725448 L158.782178,22.4725448 L158.782178,17.6203606 L159.25,17.6203606 L159.25,23.3043478 Z" id="Shape" fill="#FFFFFF"></path>
                    <path d="M68.435462,1.59029782 L64.9125316,1.59029782 L64.9125316,11.9363733 L62.9573053,11.9363733 L62.9573053,1.59029782 L59.434375,1.59029782 L59.434375,0 L68.4178473,0 L68.435462,1.59029782 Z M76.0517663,6.56226341 L71.5976637,6.56226341 L71.5976637,10.3460755 L76.9172554,10.3460755 L76.9172554,11.9363733 L69.6471467,11.9363733 L69.6471467,0 L76.9172554,0 L76.9172554,1.59029782 L71.5444678,1.59029782 L71.5444678,4.97196559 L76.0517663,4.97196559 L76.0517663,6.56226341 Z M86.6716302,8.02170156 L86.6716302,8.02170156 C86.7414718,9.09238026 86.321931,10.1371708 85.5300867,10.8645098 C84.6456158,11.6077589 83.5108483,11.9887837 82.3551688,11.9305629 C81.1103951,11.9801751 79.9056746,11.4871793 79.0553946,10.580229 C78.1848437,9.60518309 77.7305004,8.33029855 77.7889948,7.02671867 L77.7889948,4.93014758 C77.7237172,3.62872801 78.1717977,2.35345536 79.037558,1.37663726 C79.8608175,0.461372733 81.0511054,-0.0402606482 82.2838224,0.0085357892 C83.4568908,-0.061898307 84.6142313,0.305496353 85.5300867,1.03905378 C86.3768126,1.75770609 86.8385282,2.82868072 86.7786499,3.93516469 L86.7786499,3.93516469 L84.9949882,3.93516469 C85.040338,3.27944986 84.8073869,2.63486916 84.35287,2.15840953 C83.8611185,1.7296666 83.2220355,1.50685369 82.5692082,1.53654523 C81.8578817,1.54898846 81.1952241,1.89883707 80.7855465,2.47822546 C80.1518242,3.14396106 79.7784851,4.01381381 79.7331861,4.93014758 L79.7331861,7.15109153 C79.7047272,8.0008833 79.9552081,8.83674521 80.4466508,9.53194344 C80.8933009,10.1413818 81.6161983,10.4880957 82.3730055,10.4558561 C83.0247177,10.5000634 83.6670683,10.2825098 84.1566672,9.85175937 C84.5887175,9.3628664 84.8126359,8.72557679 84.7809488,8.07500421 L86.6716302,8.02170156 Z M97.1697011,11.9363733 L95.2045515,11.9363733 L95.2045515,6.83645269 L90.1513097,6.83645269 L90.1513097,11.9363733 L88.1686141,11.9363733 L88.1686141,0 L90.1513097,0 L90.1513097,5.24615487 L95.2747354,5.24615487 L95.2747354,0 L97.1697011,0 L97.1697011,11.9363733 Z M107.901766,11.9363733 L105.978005,11.9363733 L100.877389,3.37924723 L100.877389,3.37924723 L100.877389,11.9182053 L98.9006793,11.9182053 L98.9006793,0.0726719834 L100.824441,0.0726719834 L105.942706,8.53895805 L105.942706,8.53895805 L105.942706,0 L107.866468,0 L107.901766,11.9363733 Z M118.869945,6.99749275 C118.916376,8.29729139 118.439961,9.56182643 117.546326,10.5107384 C116.658475,11.4454564 115.414588,11.9623976 114.122567,11.9336029 C112.858847,11.9783586 111.637005,11.4790912 110.7694,10.5634371 C109.88885,9.60764831 109.419964,8.34627725 109.46343,7.05019144 L109.46343,4.90711161 C109.412244,3.60979332 109.882183,2.34558875 110.7694,1.39386598 C111.629735,0.465865434 112.854827,-0.041147734 114.122567,0.00613396185 C115.445566,-0.0622677761 116.733301,0.444023857 117.652216,1.39386598 C118.552735,2.33850642 119.030274,3.60602583 118.975834,4.90711161 L118.869945,6.99749275 Z M116.946286,4.90711161 C116.983203,4.05466246 116.707186,3.21797322 116.169763,2.55323704 C115.664972,1.95137449 114.909837,1.61443863 114.122567,1.63979318 C113.34494,1.60727653 112.600382,1.95487149 112.128315,2.57080327 C111.604544,3.23607563 111.32997,4.06218118 111.351792,4.90711161 L111.351792,6.97992653 C111.314592,7.83211164 111.576672,8.67059629 112.093018,9.35136732 C112.565085,9.9672991 113.309644,10.3148941 114.08727,10.2823774 C114.892322,10.3216081 115.669434,9.98360781 116.187411,9.36893355 C116.71952,8.68868875 116.988789,7.84100582 116.946286,6.97992653 L116.946286,4.90711161 Z M122.447406,10.3460755 L127.808016,10.3460755 L127.808016,11.9363733 L120.537908,11.9363733 L120.537908,0 L122.447406,0 L122.447406,10.3460755 Z M138.016595,7.02646771 C138.063022,8.33133357 137.58666,9.60079836 136.693124,10.5534096 C135.772496,11.5024704 134.484372,12.0045091 133.163867,11.928917 C131.895039,11.9743608 130.667704,11.4734743 129.793427,10.5534096 C128.917733,9.59212858 128.455096,8.32546063 128.505248,7.02646771 L128.505248,4.92793727 C128.447336,3.62773878 128.911021,2.35820299 129.793427,1.40099536 C130.65912,0.466592403 131.890624,-0.0424388378 133.163867,0.00785330591 C134.488273,-0.0704141824 135.779741,0.43938134 136.693124,1.40099536 C137.593543,2.34931845 138.071029,3.62177925 138.016595,4.92793727 L138.016595,7.02646771 Z M136.09315,4.92793727 C136.13504,4.07439956 135.865404,3.23469272 135.33436,2.56488619 C134.823785,1.94629332 134.053956,1.6007494 133.252098,1.63024658 C132.470816,1.60363514 131.723632,1.95078243 131.240422,2.56488619 C130.730341,3.24387565 130.474355,4.07996422 130.516924,4.92793727 L130.516924,7.008833 C130.483258,7.86113219 130.738155,8.69987765 131.240422,9.38951879 C131.718004,10.010684 132.469042,10.3596217 133.252098,10.3241584 C134.052006,10.3634904 134.823658,10.0236635 135.33436,9.4071535 C135.86641,8.72425678 136.135649,7.87326918 136.09315,7.008833 L136.09315,4.92793727 Z M148.406658,10.2096134 C147.999933,10.7293457 147.472027,11.1433362 146.868325,11.4159934 C146.014922,11.7955848 145.083779,11.9717801 144.149411,11.9304791 C142.881745,11.9806807 141.650269,11.5049871 140.750768,10.6176537 C139.846709,9.70859789 139.361264,8.4696308 139.409199,7.19366322 L139.409199,4.74542132 C139.359434,3.47917885 139.823301,2.24595538 140.697105,1.32143084 C141.568355,0.435843614 142.77767,-0.0413357339 144.024198,0.00860547985 C145.17028,-0.0615806791 146.30089,0.299527659 147.190301,1.01983583 C147.960397,1.68523121 148.371007,2.67049501 148.299332,3.68096833 L148.299332,3.68096833 L146.510573,3.68096833 C146.537745,3.09897786 146.317051,2.5324544 145.902395,2.11977059 C145.415651,1.68244491 144.768276,1.46414274 144.113635,1.51658056 C143.350411,1.49266518 142.620752,1.82818704 142.146,2.42136561 C141.64473,3.07173617 141.385626,3.87400968 141.412609,4.69219867 L141.412609,7.14044057 C141.377836,7.97638004 141.65127,8.7962591 142.181776,9.4467554 C142.686889,10.0286925 143.429134,10.354426 144.203073,10.3337996 C144.683727,10.3744991 145.167858,10.3324851 145.634081,10.2096134 C145.942845,10.099562 146.22366,9.92397828 146.45691,9.69512777 L146.45691,7.26462675 L144.00631,7.26462675 L144.00631,5.80987432 L148.406658,5.80987432 L148.406658,10.2096134 Z M154.118886,5.81281271 L156.943669,0 L159.138723,0 L155.054483,7.76869624 L155.054483,11.9363733 L153.093328,11.9363733 L153.093328,7.64074124 L149.099049,0 L151.276111,0 L154.118886,5.81281271 Z" id="Shape" fill="#8DC63F"></path>
                    <path d="M5.92499005,7.59677632 C5.40114519,7.20574408 4.8035631,6.92762778 4.16921781,6.77963523 C3.1201802,6.53205802 2.13357422,6.06623434 1.27219361,5.4118121 C0.616041775,4.8844424 0.244950673,4.07426181 0.271403432,3.22684788 C0.256110341,2.32289679 0.666792484,1.46550432 1.37753994,0.917536107 C2.18602515,0.290249977 3.18632665,-0.0303372806 4.20433325,0.0115753334 C5.28743573,-0.0477879622 6.35296502,0.307332368 7.18914606,1.00635579 C7.89943494,1.62886975 8.29316603,2.54312814 8.26016713,3.49330693 L6.50439489,3.49330693 C6.5409897,2.94011137 6.32019505,2.40135241 5.90743233,2.03666412 C5.45178099,1.66467185 4.87692611,1.47501756 4.29212186,1.50374602 C3.75533315,1.4658159 3.22367753,1.63034998 2.79971546,1.96560837 C2.46371413,2.26614577 2.27714525,2.70224674 2.29054151,3.15579214 C2.28736804,3.59406608 2.4974519,4.00588417 2.85238863,4.25715621 C3.43970612,4.63774614 4.08693437,4.91409638 4.76618037,5.0742973 C5.7732659,5.32393786 6.71030906,5.80403943 7.50518507,6.47764831 C8.08751598,7.08758448 8.37629588,7.92514306 8.29528258,8.76919615 C8.32843252,9.67703797 7.91397648,10.5423093 7.18914606,11.0785079 C6.32422749,11.6807865 5.28830477,11.9802407 4.2394487,11.9311769 C3.17943785,11.9432888 2.0816126,11.6970583 1.21168478,11.0841447 C0.351837755,10.4866783 0,9.42271912 0,8.34286166 L0.00803759542,8.34286166 L1.76380984,8.34286166 C1.71065811,8.95749482 1.97653164,9.55601135 2.46611873,9.92385203 C2.97721314,10.2926555 3.59454305,10.4800297 4.22189098,10.4567701 C4.78334048,10.4961255 5.34113566,10.3393626 5.80208599,10.0126717 C6.21924785,9.75252152 6.46190759,9.28196114 6.434164,8.78696008 C6.45005523,8.33293465 6.26304493,7.89580187 5.92499005,7.59677632 Z M15.9199827,9.15792192 L11.8634727,9.15792192 L10.9678796,11.9363733 L9.00108696,11.9363733 L13.0049149,0 L14.7609798,0 L18.6945652,11.9363733 L16.7980151,11.9363733 L15.9199827,9.15792192 Z M12.4078529,7.49450696 L15.4107239,7.49450696 L13.95319,2.77845136 L13.95319,2.77845136 L12.4078529,7.49450696 Z M21.9834239,11.9363733 L20.0793478,11.9363733 L20.0793478,0 L21.9834239,0 L21.9834239,11.9363733 Z M32.7154891,10.1635633 C32.3083866,10.6775013 31.7867957,11.0894304 31.1922299,11.3665651 C30.3516067,11.7633447 29.429394,11.9572633 28.4999578,11.9326836 C27.2393647,11.9834072 26.0142316,11.5093141 25.1169053,10.6235345 C24.1772568,9.71224174 23.6687151,8.44561765 23.7176323,7.13836751 L23.7176323,4.71467268 C23.6968,3.44538675 24.188356,2.22114967 25.0814807,1.31796167 C25.9387359,0.437630411 27.1296386,-0.0381628323 28.3582592,0.00881263998 C29.4986539,-0.0621846522 30.6240758,0.297773648 31.5110516,1.01721122 C32.258102,1.69175879 32.661425,2.66637708 32.6092152,3.67089169 L32.6092152,3.67089169 L30.8025589,3.67089169 C30.8294653,3.09053098 30.6109337,2.52559397 30.2003402,2.11406582 C29.0922792,1.20477833 27.4617105,1.33788711 26.5161783,2.41481627 C26.0025201,3.05512496 25.7382701,3.85949839 25.772261,4.67929027 L25.772261,7.12067631 C25.7523172,7.955112 26.0283615,8.76972519 26.551603,9.42053272 C27.0502076,10.0029357 27.7862351,10.3282234 28.5530947,10.3050929 C29.0507986,10.3275039 29.5485396,10.2616168 30.023217,10.1104896 C30.3268351,9.99644361 30.6040468,9.82188807 30.8379836,9.59744475 L30.8379836,7.22682353 L28.3582592,7.22682353 L28.3582592,5.77614487 L32.7154891,5.77614487 L32.7154891,10.1635633 Z M43.7895182,7.0271264 C43.8363788,8.33289381 43.355561,9.60323569 42.4536666,10.5565051 C41.545332,11.4825581 40.2828214,11.9828994 38.9804525,11.9329628 C37.6997556,11.9784381 36.4609397,11.4772054 35.5784838,10.5565051 C34.6945989,9.59455992 34.2276339,8.32701681 34.278255,7.0271264 L34.278255,4.92714607 C34.2198014,3.62604925 34.6878236,2.35563632 35.5784838,1.39776735 C36.4522754,0.462718804 37.695299,-0.0466641322 38.9804525,0.00366275886 C40.2867457,-0.0485490572 41.5523974,0.459467635 42.4536666,1.39776735 C43.3625086,2.34674565 43.8444612,3.6200856 43.7895182,4.92714607 L43.7895182,7.0271264 Z M41.8480806,4.92714607 C41.8903616,4.07301863 41.6182043,3.23273163 41.0821924,2.56246233 C40.5668412,1.94344207 39.7898108,1.59765941 38.9804525,1.62717697 C38.1918621,1.60054714 37.4376884,1.94793428 36.9499581,2.56246233 C36.4351057,3.24192091 36.176725,4.07858714 36.2196926,4.92714607 L36.2196926,7.00947951 C36.1857114,7.86236756 36.4429931,8.70169252 36.9499581,9.39181014 C37.4320074,10.0134046 38.1900707,10.3625833 38.9804525,10.3270955 C39.7878424,10.3664547 40.5667127,10.026393 41.0821924,9.40945703 C41.6192191,8.7260885 41.8909766,7.87451294 41.8480806,7.00947951 L41.8480806,4.92714607 Z M54.3527174,11.9363733 L52.4289557,11.9363733 L47.3283397,3.32682992 L47.3283397,3.32682992 L47.3283397,11.918094 L45.3516304,11.918094 L45.3516304,0 L47.2753922,0 L52.3936573,8.59126407 L52.3936573,8.59126407 L52.3936573,0 L54.317419,0 L54.3527174,11.9363733 Z" id="Shape" fill="#FFFFFF"></path>
                </g>
                <g id="Group">
                    <path d="M16.975,0 L16.975,5.64705882 L5.65833333,16.9411765 L0,16.9411765 L16.975,0 Z M33.95,31.0588235 L16.975,48 L16.975,42.3529412 L28.2916667,31.0588235 L33.95,31.0588235 Z" id="Shape" fill="#FFFFFF"></path>
                    <path d="M16.975,14.1176471 L33.95,31.0588235 L28.2916667,31.0588235 L16.975,19.7647059 L16.975,14.1176471 Z M0,16.9411765 L5.65833333,16.9411765 L16.975,28.2352941 L16.975,33.8823529 L0,16.9411765 Z" id="Shape" fill="#8DC63F"></path>
                </g>
            </g>
        </g>
    </g>
</svg>